HIERARCHY
ROOT Hips
{
    OFFSET   0.000000   0.000000   0.000000
    CHANNELS 6 Xposition Yposition Zposition Zrotation Xrotation Yrotation
    JOINT Chest
    {
        OFFSET   0.000000   8.007230   0.000000
        CHANNELS 3 Zrotation Xrotation Yrotation
        JOINT Chest2
        {
            OFFSET   0.000000  22.077100   0.000000
            CHANNELS 3 Zrotation Xrotation Yrotation
            JOINT Neck
            {
                OFFSET   0.000000  23.255100   0.000000
                CHANNELS 3 Zrotation Xrotation Yrotation
                JOINT Head
                {
                    OFFSET   0.000000  14.370100   1.956600
                    CHANNELS 3 Zrotation Xrotation Yrotation
                    End Site
                    {
                        OFFSET   0.000000  19.566000   0.000000
                    }
                }
            }
            JOINT LeftCollar
            {
                OFFSET   3.911900  19.017000  -0.467063
                CHANNELS 3 Zrotation Xrotation Yrotation
                JOINT LeftShoulder
                {
                    OFFSET  10.383700   0.000000   0.000000
                    CHANNELS 3 Zrotation Xrotation Yrotation
                    JOINT LeftElbow
                    {
                        OFFSET  26.662100   0.001193   0.000980
                        CHANNELS 3 Zrotation Xrotation Yrotation
                        JOINT LeftWrist
                        {
                            OFFSET  28.869000  -0.000059  -0.000082
                            CHANNELS 3 Zrotation Xrotation Yrotation
                            JOINT LeftFinger0
                            {
                                OFFSET   2.044650  -2.323450   3.252850
                                CHANNELS 3 Zrotation Xrotation Yrotation
                                JOINT LeftFinger01
                                {
                                    OFFSET   3.088130   0.000000   0.000000
                                    CHANNELS 3 Zrotation Xrotation Yrotation
                                    JOINT LeftFinger02
                                    {
                                        OFFSET   2.639460   0.000000   0.000000
                                        CHANNELS 3 Zrotation Xrotation Yrotation
                                        End Site
                                        {
                                            OFFSET   2.582190   0.000000   0.000000
                                        }
                                    }
                                }
                            }
                            JOINT LeftFinger1
                            {
                                OFFSET   8.364480   0.000000   3.252850
                                CHANNELS 3 Zrotation Xrotation Yrotation
                                JOINT LeftFinger11
                                {
                                    OFFSET   4.646930   0.000000   0.000000
                                    CHANNELS 3 Zrotation Xrotation Yrotation
                                    JOINT LeftFinger12
                                    {
                                        OFFSET   2.323470   0.000000   0.000000
                                        CHANNELS 3 Zrotation Xrotation Yrotation
                                        End Site
                                        {
                                            OFFSET   2.273050   0.000000   0.000000
                                        }
                                    }
                                }
                            }
                            JOINT LeftFinger2
                            {
                                OFFSET   8.364490   0.000016   1.078090
                                CHANNELS 3 Zrotation Xrotation Yrotation
                                JOINT LeftFinger21
                                {
                                    OFFSET   5.111610   0.000000   0.000000
                                    CHANNELS 3 Zrotation Xrotation Yrotation
                                    JOINT LeftFinger22
                                    {
                                        OFFSET   2.788150   0.000016   0.000000
                                        CHANNELS 3 Zrotation Xrotation Yrotation
                                        End Site
                                        {
                                            OFFSET   2.727660   0.000000   0.000000
                                        }
                                    }
                                }
                            }
                            JOINT LeftFinger3
                            {
                                OFFSET   7.899780   0.000015  -1.078090
                                CHANNELS 3 Zrotation Xrotation Yrotation
                                JOINT LeftFinger31
                                {
                                    OFFSET   4.646930   0.000000   0.000000
                                    CHANNELS 3 Zrotation Xrotation Yrotation
                                    JOINT LeftFinger32
                                    {
                                        OFFSET   2.323470   0.000000   0.000000
                                        CHANNELS 3 Zrotation Xrotation Yrotation
                                        End Site
                                        {
                                            OFFSET   2.273050   0.000000   0.000000
                                        }
                                    }
                                }
                            }
                            JOINT LeftFinger4
                            {
                                OFFSET   7.435090   0.000000  -3.252850
                                CHANNELS 3 Zrotation Xrotation Yrotation
                                JOINT LeftFinger41
                                {
                                    OFFSET   3.717550   0.000000   0.000000
                                    CHANNELS 3 Zrotation Xrotation Yrotation
                                    JOINT LeftFinger42
                                    {
                                        OFFSET   1.858770   0.000000   0.000000
                                        CHANNELS 3 Zrotation Xrotation Yrotation
                                        End Site
                                        {
                                            OFFSET   1.818440   0.000000   0.000000
                                        }
                                    }
                                }
                            }
                        }
                    }
                }
            }
            JOINT RightCollar
            {
                OFFSET  -3.911910  19.017000  -0.467062
                CHANNELS 3 Zrotation Xrotation Yrotation
                JOINT RightShoulder
                {
                    OFFSET -10.383700   0.000014   0.000000
                    CHANNELS 3 Zrotation Xrotation Yrotation
                    JOINT RightElbow
                    {
                        OFFSET -26.662100   0.001225   0.001091
                        CHANNELS 3 Zrotation Xrotation Yrotation
                        JOINT RightWrist
                        {
                            OFFSET -28.869000  -0.000020  -0.000085
                            CHANNELS 3 Zrotation Xrotation Yrotation
                            JOINT RightFinger0
                            {
                                OFFSET  -2.044650  -2.323490   3.252850
                                CHANNELS 3 Zrotation Xrotation Yrotation
                                JOINT RightFinger01
                                {
                                    OFFSET  -3.088130   0.000000   0.000000
                                    CHANNELS 3 Zrotation Xrotation Yrotation
                                    JOINT RightFinger02
                                    {
                                        OFFSET  -2.639460   0.000000   0.000000
                                        CHANNELS 3 Zrotation Xrotation Yrotation
                                        End Site
                                        {
                                            OFFSET  -2.582190   0.000000   0.000000
                                        }
                                    }
                                }
                            }
                            JOINT RightFinger1
                            {
                                OFFSET  -8.364480   0.000000   3.252850
                                CHANNELS 3 Zrotation Xrotation Yrotation
                                JOINT RightFinger11
                                {
                                    OFFSET  -4.646930   0.000000   0.000000
                                    CHANNELS 3 Zrotation Xrotation Yrotation
                                    JOINT RightFinger12
                                    {
                                        OFFSET  -2.323470   0.000000   0.000000
                                        CHANNELS 3 Zrotation Xrotation Yrotation
                                        End Site
                                        {
                                            OFFSET  -2.273050   0.000000   0.000000
                                        }
                                    }
                                }
                            }
                            JOINT RightFinger2
                            {
                                OFFSET  -8.364480   0.000000   1.078090
                                CHANNELS 3 Zrotation Xrotation Yrotation
                                JOINT RightFinger21
                                {
                                    OFFSET  -5.111620   0.000000   0.000000
                                    CHANNELS 3 Zrotation Xrotation Yrotation
                                    JOINT RightFinger22
                                    {
                                        OFFSET  -2.788160   0.000000   0.000000
                                        CHANNELS 3 Zrotation Xrotation Yrotation
                                        End Site
                                        {
                                            OFFSET  -2.727660   0.000000   0.000000
                                        }
                                    }
                                }
                            }
                            JOINT RightFinger3
                            {
                                OFFSET  -7.899780   0.000000  -1.078090
                                CHANNELS 3 Zrotation Xrotation Yrotation
                                JOINT RightFinger31
                                {
                                    OFFSET  -4.646930   0.000000   0.000000
                                    CHANNELS 3 Zrotation Xrotation Yrotation
                                    JOINT RightFinger32
                                    {
                                        OFFSET  -2.323470   0.000000   0.000000
                                        CHANNELS 3 Zrotation Xrotation Yrotation
                                        End Site
                                        {
                                            OFFSET  -2.273050   0.000000   0.000000
                                        }
                                    }
                                }
                            }
                            JOINT RightFinger4
                            {
                                OFFSET  -7.435090   0.000000  -3.252850
                                CHANNELS 3 Zrotation Xrotation Yrotation
                                JOINT RightFinger41
                                {
                                    OFFSET  -3.717550   0.000000   0.000000
                                    CHANNELS 3 Zrotation Xrotation Yrotation
                                    JOINT RightFinger42
                                    {
                                        OFFSET  -1.858760   0.000000   0.000000
                                        CHANNELS 3 Zrotation Xrotation Yrotation
                                        End Site
                                        {
                                            OFFSET  -1.818440   0.000000   0.000000
                                        }
                                    }
                                }
                            }
                        }
                    }
                }
            }
        }
    }
    JOINT LeftHip
    {
        OFFSET   9.783030   0.000000   0.000000
        CHANNELS 3 Zrotation Xrotation Yrotation
        JOINT LeftKnee
        {
            OFFSET   0.000063 -41.789100   0.000608
            CHANNELS 3 Zrotation Xrotation Yrotation
            JOINT LeftAnkle
            {
                OFFSET   0.000048 -41.133200  -0.000184
                CHANNELS 3 Zrotation Xrotation Yrotation
                JOINT LeftToe
                {
                    OFFSET   0.000000  -6.358960  14.674500
                    CHANNELS 3 Zrotation Xrotation Yrotation
                    End Site
                    {
                        OFFSET   0.000000   0.000000   3.913200
                    }
                }
            }
        }
    }
    JOINT RightHip
    {
        OFFSET  -9.783030   0.000000   0.000000
        CHANNELS 3 Zrotation Xrotation Yrotation
        JOINT RightKnee
        {
            OFFSET   0.000071 -41.789100   0.001239
            CHANNELS 3 Zrotation Xrotation Yrotation
            JOINT RightAnkle
            {
                OFFSET   0.000037 -41.133200  -0.000166
                CHANNELS 3 Zrotation Xrotation Yrotation
                JOINT RightToe
                {
                    OFFSET   0.000000  -6.358960  14.674500
                    CHANNELS 3 Zrotation Xrotation Yrotation
                    End Site
                    {
                        OFFSET   0.000000   0.000000   3.913200
                    }
                }
            }
        }
    }
}
MOTION
Frames: 5
Frame Time:   0.016667
  0.530959  89.519300   0.531176  -3.447550  -9.734100  -2.453540   0.960627   6.179230   1.740690   1.746010  12.384100   3.406450   4.346710   0.722082  -0.058164   7.141520   1.438730  -8.617560  -4.302160  -2.796750  -0.563214 -74.322400  24.733500  -2.638240  -1.419480  -7.406580 -19.324500  13.764700 -15.265700   4.955220  40.407700  32.238200 -67.491000 -27.056800  -0.000509   0.000123  -8.528380   0.000414  -0.003037 -24.819600   3.831420  -8.220610 -20.532300   0.008590  -0.000944 -14.372500   0.000519  -0.009834 -28.078900   0.155629  -0.291398 -32.529600  -0.004333  -0.001816 -21.664700   0.003542  -0.004460 -26.567800   0.147877  -0.295394 -26.568100  -0.004208  -0.001839 -17.694400  -0.003201  -0.010644 -27.632200   0.153343  -0.292599 -41.448900  -0.004525  -0.000152 -27.604900   0.000763  -0.009702   9.282750  -1.275090   8.690480  52.834200   9.600820  43.365000 -20.000400 -42.530300  87.733500   7.467420 -49.742000  10.063700 -42.863000  17.766800  48.161900  -1.284200  -0.009999  -0.015212  -5.642130  -0.005087   0.003168  88.998200   5.003880   0.087026  81.785000   0.008709  -0.022826  61.338700  -0.013034  -0.011859  89.070500   0.011179  -0.000524  89.227100   0.001776  -0.022407  66.920300  -0.014682  -0.008439  83.811900  -4.938910  -0.531838  83.834900   0.010395  -0.032310  62.876200  -0.018098  -0.017907  32.302900  -8.216560 -12.735800  49.743300   0.082428   0.014386  33.129100   0.051267  -0.021963   2.341050  12.705100   3.892360   0.603455   0.301477   5.770500  -1.090510  -4.679380   2.340240  -0.000000   0.000000   0.000000   3.692040  12.110500  -6.298880   0.117880   1.445990  -4.368230  -1.552780  -4.291140   1.348470  -0.000000   0.000000   0.000000
  0.534627  89.519300   0.538291  -3.452800  -9.730290  -2.483760   0.963558   6.179030   1.740870   1.752050  12.384000   3.406400   4.347050   0.741083  -0.057976   7.145330   1.476560  -8.567570  -4.316870  -2.809620  -0.574783 -74.316200  24.797700  -2.675220  -1.422880  -7.439970 -19.297200  13.746400 -15.228000   4.953990  40.436600  32.239000 -67.460600 -27.039600  -0.000609  -0.000000  -8.519820   0.000390  -0.003033 -24.795400   3.833360  -8.234510 -20.513100   0.008600  -0.000937 -14.359100   0.000504  -0.009831 -28.078700   0.163375  -0.306308 -32.493400  -0.004334  -0.001795 -21.640600   0.003508  -0.004471 -26.548100   0.155158  -0.310542 -26.548500  -0.004210  -0.001822 -17.681300  -0.003200  -0.010630 -27.605700   0.160860  -0.307627 -41.409300  -0.004525  -0.000176 -27.578600   0.000729  -0.009739   9.313660  -1.275640   8.736190  52.730200   9.741110  43.295000 -18.454300 -42.959800  88.992000  12.103800 -55.082200  12.807000 -44.943000  22.346200  51.192300  -2.780940   0.023891  -0.030165  -6.390490   0.013771  -0.013371  88.998200   5.003960   0.087028  81.254800   0.009067  -0.008681  60.941100  -0.005192  -0.004105  88.823600   0.009489  -0.000416  88.762800   0.001597  -0.006636  66.572100  -0.004472  -0.002235  83.295900  -4.958590  -0.581315  83.321000   0.002662  -0.007113  62.490800  -0.003748  -0.004314  31.036500  -7.716090 -12.583700  47.824600   0.032067   0.000289  31.851200   0.018308  -0.011186   2.340800  12.699200   3.885830   0.603592   0.313221   5.789800  -1.090120  -4.688430   2.360460  -0.000000   0.000000   0.000000   3.694230  12.108000  -6.291660   0.112876   1.443590  -4.362440  -1.552610  -4.291000   1.365140  -0.000000   0.000000  -0.000000
  0.534243  89.519200   0.541459  -3.459360  -9.728400  -2.521120   0.966469   6.177050   1.741960   1.757930  12.380200   3.408200   4.354510   0.760660  -0.058443   7.155730   1.515530  -8.517940  -4.331370  -2.809030  -0.580299 -74.320700  24.825700  -2.693360  -1.416930  -7.425820 -19.289700  13.770200 -15.245700   4.962710  40.436400  32.217900 -67.436600 -27.025600  -0.000726  -0.000137  -8.512820   0.000370  -0.003027 -24.797900   3.836580  -8.241110 -20.515600   0.008613  -0.000930 -14.360900   0.000495  -0.009831 -28.080800   0.163330  -0.307058 -32.505600  -0.004333  -0.001773 -21.648700   0.003472  -0.004482 -26.553200   0.155123  -0.311283 -26.553600  -0.004211  -0.001804 -17.684700  -0.003198  -0.010618 -27.610800   0.160823  -0.308363 -41.416900  -0.004526  -0.000200 -27.583600   0.000697  -0.009776   9.340940  -1.265100   8.764090  52.617000   9.851400  43.315100 -17.132800 -43.307600  90.214200  12.375400 -55.899300  12.840000 -48.126500  28.614600  56.512000  -4.516990   0.017414  -0.021103  -7.258500   0.009982  -0.009343  88.998200   5.004050   0.087029  80.656200   0.009414  -0.010466  60.492100  -0.005843  -0.005634  88.431100   0.016670  -0.000293  88.368300   0.001406  -0.014009  66.276200  -0.009035  -0.005579  83.303900  -4.942460  -0.579742  83.328800   0.007603  -0.023139  62.496600  -0.012716  -0.012933  30.006000  -7.144330 -12.143000  46.147200   0.002652  -0.007245  30.734100   0.000291  -0.003001   2.341160  12.701000   3.884600   0.603347   0.320150   5.803820  -1.088980  -4.698540   2.385920  -0.000000   0.000000   0.000000   3.698150  12.109000  -6.284930   0.106949   1.441300  -4.350970  -1.552460  -4.288620   1.383150   0.000000   0.000000  -0.000000
  0.532845  89.519200   0.542057  -3.466600  -9.727310  -2.562480   0.969572   6.170030   1.742880   1.764210  12.366100   3.409860   4.365330   0.786473  -0.060018   7.167950   1.566900  -8.470190  -4.344520  -2.804860  -0.582333 -74.334300  24.832300  -2.698630  -1.404280  -7.389380 -19.287000  13.803500 -15.275500   4.976150  40.431100  32.199400 -67.424800 -27.014100  -0.000849  -0.000269  -8.507050   0.000352  -0.003022 -24.804500   3.840140  -8.245430 -20.521100   0.008625  -0.000923 -14.364800   0.000488  -0.009830 -28.083800   0.163011  -0.307165 -32.528300  -0.004331  -0.001752 -21.663900   0.003437  -0.004494 -26.562500   0.154873  -0.311389 -26.562900  -0.004211  -0.001787 -17.690900  -0.003196  -0.010606 -27.620400   0.160565  -0.308468 -41.431300  -0.004526  -0.000224 -27.593200   0.000668  -0.009813   9.352240  -1.236940   8.785190  52.505500   9.947440  43.345900 -16.507500 -43.572600  90.884900  11.846800 -56.086300  12.161000 -52.178200  33.635100  63.202400  -6.182190   0.010938  -0.012042  -8.091100   0.006193  -0.005316  88.998200   5.004130   0.087032  80.260800   0.009745  -0.014467  60.195600  -0.007706  -0.008382  88.166400   0.025185  -0.000161  88.162000   0.001215  -0.024533  66.121500  -0.015639  -0.010150  83.359000  -4.926340  -0.568812  83.383600   0.012544  -0.039165  62.537700  -0.022047  -0.021552  29.127000  -6.583640 -11.613400  44.695600  -0.010806  -0.010452  29.767300  -0.007530   0.001393   2.342270  12.706500   3.884500   0.603093   0.323341   5.816600  -1.087440  -4.704970   2.413580  -0.000000   0.000000   0.000000   3.703360  12.110000  -6.277230   0.101114   1.438950  -4.339000  -1.552290  -4.283740   1.403310  -0.000000   0.000000  -0.000000
  0.530216  89.519200   0.538748  -3.474020  -9.725950  -2.605290   0.974288   6.155760   1.739310   1.774430  12.337700   3.402280   4.371560   0.823793  -0.063262   7.177520   1.641230  -8.422540  -4.354310  -2.786350  -0.565201 -74.364600  24.797300  -2.681810  -1.391090  -7.329670 -19.303100  13.817200 -15.306200   4.984780  40.428000  32.195000 -67.442200 -27.008000  -0.000964  -0.000378  -8.504010   0.000333  -0.003018 -24.816000   3.843590  -8.249080 -20.530600   0.008631  -0.000921 -14.370700   0.000481  -0.009829 -28.085100   0.162640  -0.306516 -32.558500  -0.004331  -0.001735 -21.684000   0.003403  -0.004505 -26.572700   0.154551  -0.310728 -26.573100  -0.004210  -0.001771 -17.697600  -0.003198  -0.010594 -27.633500   0.160233  -0.307811 -41.450800  -0.004526  -0.000252 -27.606300   0.000642  -0.009850   9.344690  -1.189730   8.806220  52.375100  10.015700  43.531800 -17.261500 -43.773300  90.420000   7.572850 -50.891400   9.452820 -54.277000  35.711200  68.041500  -7.461580   0.021924  -0.023933  -8.730790   0.012433  -0.010468  88.998200   5.004200   0.087042  80.220100   0.010051  -0.021546  60.165100  -0.011906  -0.011727  88.327000   0.026741  -0.000025  88.266300   0.001036  -0.029761  66.199700  -0.019237  -0.011719  83.896900  -4.928760  -0.519653  83.919600   0.012364  -0.039158  62.939700  -0.022470  -0.021428  28.549000  -6.137280 -11.137100  43.713400   0.008813  -0.010448  29.113100   0.003725  -0.005199   2.346250  12.717200   3.884930   0.603180   0.316384   5.827360  -1.085510  -4.705120   2.440830  -0.000000   0.000000   0.000000   3.709710  12.109500  -6.268050   0.097695   1.435730  -4.330130  -1.551980  -4.276790   1.426890  -0.000000   0.000000   0.000000
